<svg width="840" height="145" viewBox="0 0 840 145" fill="none" xmlns="http://www.w3.org/2000/svg">
<g id="Frame 26086574">
<g clip-path="url(#clip0_1_3)">
<g id="slider">
<g id="Mask group">
<mask id="mask0_1_3" style="mask-type:alpha" maskUnits="userSpaceOnUse" x="-518" y="50" width="2900" height="90">
<g id="Group 9243">
<g id="Frame 26086549">
<path id="Vector 612" d="M8 50V82" stroke="#C9C9C9"/>
<path id="Vector 617" d="M20 50V82" stroke="#C9C9C9"/>
<path id="Vector 789" d="M32 50V82" stroke="#C9C9C9"/>
<path id="Vector 622" d="M44 50V82" stroke="#C9C9C9"/>
<path id="Vector 627" d="M56 50V82" stroke="#C9C9C9"/>
<path id="Vector 630" d="M68 50V98" stroke="#C9C9C9" stroke-width="2"/>
<path id="Vector 613" d="M80 50V82" stroke="#C9C9C9"/>
<path id="Vector 618" d="M92 50V82" stroke="#C9C9C9"/>
<path id="Vector 790" d="M104 50V82" stroke="#C9C9C9"/>
<path id="Vector 623" d="M116 50V82" stroke="#C9C9C9"/>
<path id="Vector 628" d="M128 50V82" stroke="#C9C9C9"/>
<path id="Vector 631" d="M140 50V98" stroke="#C9C9C9" stroke-width="2"/>
<path id="Vector 614" d="M152 50V82" stroke="#C9C9C9"/>
<path id="Vector 619" d="M164 50V82" stroke="#C9C9C9"/>
<path id="Vector 624" d="M176 50V82" stroke="#C9C9C9"/>
<path id="Vector 791" d="M188 50V82" stroke="#C9C9C9"/>
<path id="Vector 629" d="M200 50V82" stroke="#C9C9C9"/>
<path id="Vector 632" d="M212 50V110" stroke="#C9C9C9" stroke-width="3"/>
<path id="Vector 635" d="M224 50V82" stroke="#C9C9C9"/>
<path id="Vector 640" d="M236 50V82" stroke="#C9C9C9"/>
<path id="Vector 645" d="M248 50V82" stroke="#C9C9C9"/>
<path id="Vector 650" d="M260 50V82" stroke="#C9C9C9"/>
<path id="Vector 792" d="M272 50V82" stroke="#C9C9C9"/>
<path id="Vector 633" d="M284 50V98" stroke="#C9C9C9" stroke-width="2"/>
<path id="Vector 636" d="M296 50V82" stroke="#C9C9C9"/>
<path id="Vector 793" d="M308 50V82" stroke="#C9C9C9"/>
<path id="Vector 641" d="M320 50V82" stroke="#C9C9C9"/>
<path id="Vector 646" d="M332 50V82" stroke="#C9C9C9"/>
<path id="Vector 651" d="M344 50V82" stroke="#C9C9C9"/>
<path id="Vector 634" d="M356 50V98" stroke="#C9C9C9" stroke-width="2"/>
<path id="Vector 637" d="M368 50V82" stroke="#C9C9C9"/>
<path id="Vector 794" d="M380 50V82" stroke="#C9C9C9"/>
<path id="Vector 642" d="M392 50V82" stroke="#C9C9C9"/>
<path id="Vector 647" d="M404 50V82" stroke="#C9C9C9"/>
<path id="Vector 652" d="M416 50V82" stroke="#C9C9C9"/>
<path id="Vector 655" d="M428 50V98" stroke="#C9C9C9" stroke-width="2"/>
<path id="Vector 638" d="M440 50V82" stroke="#C9C9C9"/>
<path id="Vector 643" d="M452 50V82" stroke="#C9C9C9"/>
<path id="Vector 795" d="M464 50V82" stroke="#C9C9C9"/>
<path id="Vector 648" d="M476 50V82" stroke="#C9C9C9"/>
<path id="Vector 653" d="M488 50V82" stroke="#C9C9C9"/>
<path id="Vector 656" d="M500 50V98" stroke="#C9C9C9" stroke-width="2"/>
<path id="Vector 639" d="M512 50V82" stroke="#C9C9C9"/>
<path id="Vector 796" d="M524 50V82" stroke="#C9C9C9"/>
<path id="Vector 644" d="M536 50V82" stroke="#C9C9C9"/>
<path id="Vector 649" d="M548 50V82" stroke="#C9C9C9"/>
<path id="Vector 654" d="M560 50V82" stroke="#C9C9C9"/>
<path id="Vector 657" d="M572 50V110" stroke="#C9C9C9" stroke-width="3"/>
<path id="Vector 660" d="M584 50V82" stroke="#C9C9C9"/>
<path id="Vector 665" d="M596 50V82" stroke="#C9C9C9"/>
<path id="Vector 670" d="M608 50V82" stroke="#C9C9C9"/>
<path id="Vector 797" d="M620 50V82" stroke="#C9C9C9"/>
<path id="Vector 675" d="M632 50V82" stroke="#C9C9C9"/>
<path id="Vector 658" d="M644 50V98" stroke="#C9C9C9" stroke-width="2"/>
<path id="Vector 661" d="M656 50V82" stroke="#C9C9C9"/>
<path id="Vector 666" d="M668 50V82" stroke="#C9C9C9"/>
<path id="Vector 671" d="M680 50V82" stroke="#C9C9C9"/>
<path id="Vector 798" d="M692 50V82" stroke="#C9C9C9"/>
<path id="Vector 676" d="M704 50V82" stroke="#C9C9C9"/>
<path id="Vector 659" d="M716 50V98" stroke="#C9C9C9" stroke-width="2"/>
<path id="Vector 662" d="M728 50V82" stroke="#C9C9C9"/>
<path id="Vector 667" d="M740 50V82" stroke="#C9C9C9"/>
<path id="Vector 672" d="M752 50V82" stroke="#C9C9C9"/>
<path id="Vector 799" d="M764 50V82" stroke="#C9C9C9"/>
<path id="Vector 677" d="M776 50V82" stroke="#C9C9C9"/>
<path id="Vector 680" d="M788 50V98" stroke="#C9C9C9" stroke-width="2"/>
<path id="Vector 663" d="M800 50V82" stroke="#C9C9C9"/>
<path id="Vector 668" d="M812 50V82" stroke="#C9C9C9"/>
<path id="Vector 800" d="M824 50V82" stroke="#C9C9C9"/>
<path id="Vector 673" d="M836 50V82" stroke="#C9C9C9"/>
</g>
<g id="Frame 26086552">
<path id="10" d="M209.015 124.818L209.015 135L207.474 135L207.474 126.359L207.414 126.359L204.978 127.95L204.978 126.479L207.519 124.818L209.015 124.818ZM215.314 135.169C214.529 135.166 213.858 134.959 213.301 134.548C212.744 134.137 212.318 133.538 212.023 132.753C211.728 131.967 211.581 131.021 211.581 129.914C211.581 128.81 211.728 127.867 212.023 127.085C212.321 126.303 212.749 125.706 213.306 125.295C213.866 124.884 214.535 124.679 215.314 124.679C216.093 124.679 216.761 124.886 217.318 125.3C217.875 125.711 218.3 126.308 218.595 127.09C218.894 127.869 219.043 128.81 219.043 129.914C219.043 131.024 218.895 131.972 218.6 132.758C218.305 133.54 217.88 134.138 217.323 134.553C216.766 134.964 216.096 135.169 215.314 135.169ZM215.314 133.842C216.004 133.842 216.542 133.505 216.93 132.832C217.321 132.16 217.517 131.187 217.517 129.914C217.517 129.069 217.427 128.355 217.248 127.771C217.072 127.185 216.819 126.741 216.487 126.439C216.159 126.134 215.768 125.982 215.314 125.982C214.628 125.982 214.09 126.32 213.698 126.996C213.307 127.672 213.11 128.645 213.107 129.914C213.107 130.763 213.195 131.48 213.37 132.067C213.549 132.65 213.803 133.093 214.131 133.394C214.459 133.692 214.853 133.842 215.314 133.842Z" fill="white"/>
<path id="15" d="M569.193 124.818L569.193 135L567.652 135L567.652 126.359L567.592 126.359L565.156 127.95L565.156 126.479L567.696 124.818L569.193 124.818ZM575.308 135.139C574.685 135.139 574.125 135.02 573.628 134.781C573.134 134.539 572.739 134.208 572.444 133.787C572.149 133.366 571.992 132.885 571.972 132.345L573.464 132.345C573.5 132.783 573.694 133.142 574.045 133.424C574.397 133.706 574.817 133.847 575.308 133.847C575.699 133.847 576.045 133.757 576.347 133.578C576.652 133.396 576.891 133.146 577.063 132.827C577.239 132.509 577.326 132.146 577.326 131.739C577.326 131.324 577.237 130.955 577.058 130.63C576.879 130.305 576.632 130.05 576.317 129.864C576.006 129.679 575.648 129.584 575.243 129.581C574.935 129.581 574.625 129.634 574.314 129.74C574.002 129.846 573.75 129.985 573.558 130.158L572.151 129.949L572.723 124.818L578.321 124.818L578.321 126.136L574 126.136L573.677 128.984L573.737 128.984C573.936 128.792 574.199 128.631 574.527 128.502C574.859 128.373 575.214 128.308 575.591 128.308C576.211 128.308 576.763 128.456 577.247 128.751C577.734 129.046 578.117 129.448 578.395 129.959C578.677 130.466 578.816 131.049 578.813 131.709C578.816 132.368 578.667 132.957 578.366 133.474C578.067 133.991 577.653 134.398 577.123 134.697C576.596 134.992 575.991 135.139 575.308 135.139Z" fill="white"/>
</g>
</g>
</mask>
<g mask="url(#mask0_1_3)">
<rect id="Rectangle 6531" width="840" height="145" rx="11" fill="url(#paint0_linear_1_3)"/>
</g>
</g>
</g>
<path id="Polygon 11" d="M420 33L412.206 19.5L427.794 19.5L420 33Z" fill="white"/>
</g>
</g>
<defs>
<linearGradient id="paint0_linear_1_3" x1="0" y1="72.5" x2="840" y2="72.5" gradientUnits="userSpaceOnUse">
<stop offset="0.0210716" stop-color="#C9C9C9" stop-opacity="0"/>
<stop offset="0.49" stop-color="#C9C9C9"/>
<stop offset="0.975933" stop-color="#C9C9C9" stop-opacity="0"/>
</linearGradient>
<clipPath id="clip0_1_3">
<rect width="840" height="145" rx="11" fill="white"/>
</clipPath>
</defs>
</svg>
