<svg width="18" height="18" viewBox="0 0 18 18" fill="none" xmlns="http://www.w3.org/2000/svg">
<path d="M14.5 8.49933V8.29932C14.5 6.61923 14.5 5.77919 14.173 5.13747C13.8854 4.573 13.4265 4.11406 12.8621 3.82643C12.2204 3.49944 11.3803 3.4994 9.70023 3.49932L6.50098 3.49917C6.5002 3.49917 6.49981 3.49917 6.49949 3.49917C4.84309 3.49945 3.50036 4.84211 3.5 6.49851C3.5 6.49884 3.5 6.49923 3.5 6.5V6.5M14.5 8.49933L16.5 7M14.5 8.49933L12.5 7" stroke="#AAAAAA" stroke-width="1.5" stroke-linecap="round" stroke-linejoin="round"/>
<path d="M3.5 9.50067L3.5 9.70068C3.5 11.3808 3.5 12.2208 3.82696 12.8625C4.11456 13.427 4.57348 13.8859 5.13794 14.1736C5.77964 14.5006 6.61969 14.5006 8.29977 14.5007L11.499 14.5008C11.4998 14.5008 11.5002 14.5008 11.5005 14.5008C13.1569 14.5006 14.4996 13.1579 14.5 11.5015C14.5 11.5012 14.5 11.5008 14.5 11.5V11.5M3.5 9.50067L1.5 11M3.5 9.50067L5.5 11" stroke="#AAAAAA" stroke-width="1.5" stroke-linecap="round" stroke-linejoin="round"/>
</svg>
